<svg width="99" height="101" viewBox="0 0 99 101" fill="none" xmlns="http://www.w3.org/2000/svg">
<path d="M29.3316 61.1211C31.7932 66.0238 36.4621 69.6653 42.1958 70.6505L42.9333 70.7776L42.4619 81.0902C42.2043 81.0241 41.916 80.9833 41.6465 80.9291C41.36 80.8699 41.0819 80.8037 40.7801 80.758C39.9036 80.6257 38.9814 80.5341 37.9761 80.5341C36.6132 80.5341 35.3551 80.717 34.199 81.0326C34.7704 81.2326 35.323 81.4462 35.8519 81.6769C36.2978 81.8719 36.7302 82.077 37.1454 82.2889C37.4319 82.2703 37.7049 82.2295 38.0033 82.2295C38.973 82.2295 39.8664 82.3126 40.7021 82.4481C41.0023 82.4972 41.2854 82.5566 41.5685 82.6193C41.8449 82.6805 42.1211 82.7431 42.3805 82.816C44.8303 83.5076 46.5934 84.6959 47.7835 85.7827C48.1142 86.0844 48.4056 86.3794 48.6497 86.6507C49.1516 87.21 49.4669 87.6662 49.6348 87.9272C49.7112 88.0458 49.7636 88.1357 49.7773 88.1594L49.8096 88.2188C50.0129 88.0832 50.2129 87.9491 50.435 87.8187C50.5097 87.7747 50.5706 87.7256 50.6469 87.683C50.9859 87.4898 51.3725 87.3185 51.7507 87.1421C52.9814 84.7975 57.0062 78.6758 66.042 76.76L66.0642 76.2989L66.1234 75.029C56.594 76.9227 51.981 83.3021 50.3927 86.1061C50.14 85.7908 49.806 85.4246 49.4332 85.0464C49.1518 84.7599 48.8331 84.4683 48.4787 84.1683C48.2074 83.9394 47.9379 83.7088 47.6225 83.4817L46.7359 70.867L47.5277 70.7636C55.187 69.7717 61.2038 63.9382 62.6684 56.5976C54.3919 52.9967 48.4787 44.9948 47.8532 35.5639C46.9937 35.435 46.1206 35.3486 45.2272 35.3486C44.1473 35.3486 43.0962 35.4605 42.0688 35.6452C43.159 40.9905 43.7539 45.6849 43.7539 48.6668C43.752 58.9697 37.6998 60.8346 29.3316 61.1211Z" fill="#D9D9D9"/>
<path d="M77.1141 74.948L77.2072 76.2518L77.2395 76.7113C90.012 79.2391 94.669 90.3247 96.0609 94.931C96.3761 95.2309 96.6764 95.5344 96.9611 95.8431C97.4985 96.4262 97.985 97.0196 98.4021 97.6078H98.4308L98.2358 96.6026C98.197 96.4005 94.4995 78.1285 77.1141 74.948Z" fill="#D9D9D9"/>
<path d="M49.5195 35.0166C49.5332 35.3132 49.5399 35.6116 49.5654 35.905C50.2911 44.3357 55.5719 51.4664 62.9329 54.8451C63.2008 54.9689 63.4651 55.0978 63.7399 55.2112C64.0043 55.3213 64.2806 55.4078 64.5501 55.5078C65.3453 55.8012 66.1608 56.0521 66.9931 56.2588L67.5153 44.9732L56.355 28.0439L68.1865 34.5404L69.6104 17.9298H74.069L74.8489 41.5931L87.7503 37.7599L75.5661 53.2331L75.812 56.6829C86.9433 55.0675 95.5283 45.4888 95.5283 33.9165C95.5283 21.2153 85.1954 10.884 72.4958 10.884C59.7962 10.884 49.4633 21.2169 49.4633 33.9165C49.4633 33.9894 49.4736 34.0607 49.4736 34.1317C49.4771 34.4301 49.5059 34.7218 49.5195 35.0166Z" fill="#D9D9D9"/>
<path d="M6.13972 57.8592C9.02171 59.3408 13.2142 59.4748 17.6288 59.4766L17.9527 54.9297L5.76848 39.4568L18.6699 43.2899L19.4496 19.625H23.9082L25.3323 36.234L37.164 29.7375L26.0037 46.6669L26.1257 49.2879L26.5615 59.1259L26.5971 60.3125C26.6648 60.3125 26.7327 60.3125 26.8005 60.3125C27.0955 60.3125 27.3921 59.8904 27.6803 59.887C27.9888 59.8836 28.289 59.6649 28.5889 59.6581C36.8044 59.4752 42.0564 57.9358 42.0564 48.7693C42.0564 45.5719 41.4816 41.0302 40.4729 36.0629C40.417 35.7866 40.361 35.4832 40.3018 35.2035C40.2442 34.9304 40.1832 34.6407 40.122 34.3659C36.769 18.9925 29.4979 0 21.9266 0C11.5851 0 1.79636 35.415 1.79636 48.669C1.79813 53.4176 3.17654 56.3352 6.13972 57.8592Z" fill="#D9D9D9"/>
<path d="M68.6341 57.4576L68.5951 58.3069L67.8339 74.7447L67.7746 76.0366L67.7543 76.4722L67.2084 88.2664C69.8684 90.1396 71.528 92.5369 72.2926 93.827C73.1064 93.2727 74.5593 92.4538 76.614 91.7435L75.5223 76.4229L75.49 75.9754L75.3984 74.6887L74.249 58.5562L74.188 57.7118L74.1269 56.8675L73.8303 52.7004L83.1189 40.9044L73.2284 43.8424L72.4283 19.6248H71.1653L69.6512 37.278L61.5323 32.8227L69.2327 44.5017L68.6715 56.6062L68.6341 57.4576Z" fill="#D9D9D9"/>
<path d="M23.866 38.9735L22.3537 21.3203H21.0907L20.2922 45.5396L10.4017 42.6016L19.6903 54.3976L19.6666 54.7248L19.3274 59.4733L19.2664 60.3209L19.2055 61.1685L17.8306 80.4647C20.0174 79.8899 22.4401 79.5577 25.129 79.5577C25.3698 79.5577 25.5917 79.5797 25.8291 79.5846L24.9763 61.1703L24.9373 60.3227L24.8983 59.4751L24.283 46.1973L31.9831 34.5183L23.866 38.9735Z" fill="#D9D9D9"/>
<path d="M94.4809 95.914C92.1634 93.7796 89.0169 91.9842 85.7092 91.9842C82.7629 91.9842 80.3385 92.3996 78.3973 92.9506C78.0906 93.037 77.7905 93.1268 77.5072 93.2201C77.2411 93.3084 76.9783 93.3965 76.7342 93.4881C76.0883 93.7287 75.5221 93.9782 75.0289 94.2187C73.4097 95.0087 72.6011 95.7106 72.5841 95.7276L72.3756 95.9141L71.7416 96.4802L71.4704 95.9141L71.2534 95.4599C71.2431 95.4396 71.0007 94.9463 70.526 94.2189C69.8615 93.1983 68.7256 91.7131 67.1116 90.3773C66.8607 90.1706 66.6029 89.9654 66.3283 89.7687C66.0519 89.5687 65.769 89.3721 65.4687 89.1871C63.7039 88.1021 61.522 87.3155 58.9095 87.3155C55.2358 87.3155 52.5352 88.431 50.6534 89.694C50.6485 89.6976 50.6417 89.7007 50.6364 89.7043C50.3364 89.906 50.0618 90.1112 49.8041 90.3163C49.4904 90.5654 49.2124 90.8131 48.9564 91.0536C48.6767 91.3181 48.4225 91.5757 48.2088 91.8149C47.485 92.6253 47.1442 93.2272 47.1341 93.2456L46.2728 94.8173L45.6032 93.1524C45.5167 92.9387 44.5368 90.5992 42.1431 88.0495C41.9006 87.7919 41.6329 87.5308 41.3598 87.2698C41.0953 87.0171 40.8088 86.7679 40.5156 86.5152C38.8948 85.1269 36.825 83.8027 34.2192 82.8229C33.8514 82.6857 33.4817 82.5483 33.0935 82.4263C32.6274 82.2788 32.1306 82.155 31.6321 82.0329C30.3877 81.7262 29.0603 81.4888 27.6108 81.3666C27.3261 81.3429 27.0192 81.3411 26.7258 81.326C26.4562 81.3108 26.1867 81.2955 25.9103 81.2886C25.6458 81.2819 25.4034 81.2532 25.1322 81.2532C22.3536 81.2532 19.9105 81.6482 17.7033 82.2788C17.4287 82.3566 17.1523 82.4313 16.8862 82.5179C16.5777 82.6178 16.2623 82.7076 15.9657 82.8179C5.06678 86.8594 1.45065 97.6143 0.569 101H39.8511H40.7377H49.6415H50.552H98.1107C97.8242 100.042 97.1102 98.8316 96.0949 97.6092C95.6217 97.038 95.0794 96.4648 94.4809 95.914Z" fill="#D9D9D9"/>
</svg>
