<svg width="373" height="101" viewBox="0 0 373 101" fill="none" xmlns="http://www.w3.org/2000/svg">
<path d="M30.3318 61.1211C32.7934 66.0238 37.4623 69.6653 43.1959 70.6505L43.9335 70.7776L43.4621 81.0902C43.2045 81.0241 42.9162 80.9833 42.6467 80.9291C42.3602 80.8699 42.082 80.8037 41.7803 80.758C40.9038 80.6257 39.9815 80.5341 38.9763 80.5341C37.6133 80.5341 36.3553 80.717 35.1992 81.0326C35.7706 81.2326 36.3232 81.4462 36.8521 81.6769C37.2979 81.8719 37.7303 82.077 38.1456 82.2889C38.4321 82.2703 38.7051 82.2295 39.0035 82.2295C39.9732 82.2295 40.8666 82.3126 41.7023 82.4481C42.0024 82.4972 42.2856 82.5566 42.5687 82.6193C42.8451 82.6805 43.1213 82.7431 43.3807 82.816C45.8304 83.5076 47.5936 84.6959 48.7837 85.7827C49.1143 86.0844 49.4058 86.3794 49.6499 86.6507C50.1518 87.21 50.467 87.6662 50.6349 87.9272C50.7113 88.0458 50.7638 88.1357 50.7775 88.1594L50.8097 88.2188C51.0131 88.0832 51.2131 87.9491 51.4352 87.8187C51.5098 87.7747 51.5708 87.7256 51.6471 87.683C51.986 87.4898 52.3727 87.3185 52.7509 87.1421C53.9816 84.7975 58.0064 78.6758 67.0422 76.76L67.0643 76.2989L67.1236 75.029C57.5942 76.9227 52.9812 83.3021 51.3928 86.1061C51.1402 85.7908 50.8062 85.4246 50.4334 85.0464C50.152 84.7599 49.8332 84.4683 49.4788 84.1683C49.2076 83.9394 48.9381 83.7088 48.6227 83.4817L47.7361 70.867L48.5279 70.7636C56.1872 69.7717 62.204 63.9382 63.6686 56.5976C55.3921 52.9967 49.4788 44.9948 48.8534 35.5639C47.9939 35.435 47.1207 35.3486 46.2274 35.3486C45.1475 35.3486 44.0964 35.4605 43.069 35.6452C44.1592 40.9905 44.7541 45.6849 44.7541 48.6668C44.7522 58.9697 38.6999 60.8346 30.3318 61.1211Z" fill="#28B5B5"/>
<path d="M78.1143 74.948L78.2073 76.2518L78.2396 76.7113C91.0121 79.2391 95.6691 90.3247 97.061 94.931C97.3762 95.2309 97.6765 95.5344 97.9612 95.8431C98.4986 96.4262 98.9851 97.0196 99.4022 97.6078H99.4309L99.2359 96.6026C99.1971 96.4005 95.4996 78.1285 78.1143 74.948Z" fill="#28B5B5"/>
<path d="M50.5196 35.0166C50.5332 35.3132 50.54 35.6116 50.5655 35.905C51.2911 44.3357 56.572 51.4664 63.933 54.8451C64.2009 54.9689 64.4652 55.0978 64.74 55.2112C65.0043 55.3213 65.2807 55.4078 65.5502 55.5078C66.3453 55.8012 67.1609 56.0521 67.9932 56.2588L68.5153 44.9732L57.3551 28.0439L69.1865 34.5404L70.6105 17.9298H75.0691L75.849 41.5931L88.7504 37.7599L76.5661 53.2331L76.812 56.6829C87.9434 55.0675 96.5284 45.4888 96.5284 33.9165C96.5284 21.2153 86.1955 10.884 73.4959 10.884C60.7962 10.884 50.4634 21.2169 50.4634 33.9165C50.4634 33.9894 50.4737 34.0607 50.4737 34.1317C50.4772 34.4301 50.5059 34.7218 50.5196 35.0166Z" fill="#28B5B5"/>
<path d="M7.13975 57.8592C10.0217 59.3408 14.2142 59.4748 18.6289 59.4766L18.9528 54.9297L6.76851 39.4568L19.6699 43.2899L20.4496 19.625H24.9082L26.3324 36.234L38.164 29.7375L27.0038 46.6669L27.1257 49.2879L27.5615 59.1259L27.5971 60.3125C27.6649 60.3125 27.7328 60.3125 27.8005 60.3125C28.0955 60.3125 28.3921 59.8904 28.6804 59.887C28.9888 59.8836 29.289 59.6649 29.589 59.6581C37.8045 59.4752 43.0564 57.9358 43.0564 48.7693C43.0564 45.5719 42.4817 41.0302 41.4729 36.0629C41.4171 35.7866 41.361 35.4832 41.3018 35.2035C41.2442 34.9304 41.1832 34.6407 41.1221 34.3659C37.769 18.9925 30.4979 0 22.9267 0C12.5851 0 2.79639 35.415 2.79639 48.669C2.79816 53.4176 4.17657 56.3352 7.13975 57.8592Z" fill="#28B5B5"/>
<path d="M69.6343 57.4576L69.5952 58.3069L68.834 74.7447L68.7748 76.0366L68.7544 76.4722L68.2085 88.2664C70.8685 90.1396 72.5281 92.5369 73.2928 93.827C74.1065 93.2727 75.5594 92.4538 77.6141 91.7435L76.5224 76.4229L76.4901 75.9754L76.3985 74.6887L75.2491 58.5562L75.1881 57.7118L75.127 56.8675L74.8304 52.7004L84.119 40.9044L74.2285 43.8424L73.4284 19.6248H72.1654L70.6514 37.278L62.5325 32.8227L70.2328 44.5017L69.6717 56.6062L69.6343 57.4576Z" fill="#28B5B5"/>
<path d="M24.8661 38.9735L23.3539 21.3203H22.0909L21.2924 45.5396L11.4019 42.6016L20.6905 54.3976L20.6667 54.7248L20.3276 59.4733L20.2666 60.3209L20.2056 61.1685L18.8307 80.4647C21.0176 79.8899 23.4402 79.5577 26.1291 79.5577C26.3699 79.5577 26.5918 79.5797 26.8292 79.5846L25.9765 61.1703L25.9375 60.3227L25.8985 59.4751L25.2831 46.1973L32.9832 34.5183L24.8661 38.9735Z" fill="#28B5B5"/>
<path d="M95.481 95.914C93.1635 93.7796 90.017 91.9842 86.7093 91.9842C83.763 91.9842 81.3386 92.3996 79.3974 92.9506C79.0907 93.037 78.7906 93.1268 78.5073 93.2201C78.2412 93.3084 77.9784 93.3965 77.7343 93.4881C77.0884 93.7287 76.5222 93.9782 76.029 94.2187C74.4098 95.0087 73.6012 95.7106 73.5842 95.7276L73.3757 95.9141L72.7417 96.4802L72.4705 95.9141L72.2535 95.4599C72.2432 95.4396 72.0008 94.9463 71.526 94.2189C70.8616 93.1983 69.7257 91.7131 68.1117 90.3773C67.8608 90.1706 67.603 89.9654 67.3284 89.7687C67.052 89.5687 66.7691 89.3721 66.4687 89.1871C64.704 88.1021 62.5221 87.3155 59.9096 87.3155C56.2359 87.3155 53.5353 88.431 51.6535 89.694C51.6486 89.6976 51.6418 89.7007 51.6365 89.7043C51.3365 89.906 51.0619 90.1112 50.8041 90.3163C50.4905 90.5654 50.2125 90.8131 49.9565 91.0536C49.6768 91.3181 49.4225 91.5757 49.2089 91.8149C48.485 92.6253 48.1443 93.2272 48.1342 93.2456L47.2729 94.8173L46.6033 93.1524C46.5168 92.9387 45.5369 90.5992 43.1432 88.0495C42.9007 87.7919 42.633 87.5308 42.3599 87.2698C42.0954 87.0171 41.8089 86.7679 41.5157 86.5152C39.8949 85.1269 37.8251 83.8027 35.2193 82.8229C34.8515 82.6857 34.4818 82.5483 34.0936 82.4263C33.6275 82.2788 33.1307 82.155 32.6322 82.0329C31.3878 81.7262 30.0604 81.4888 28.6109 81.3666C28.3262 81.3429 28.0193 81.3411 27.7259 81.326C27.4563 81.3108 27.1868 81.2955 26.9104 81.2886C26.6459 81.2819 26.4035 81.2532 26.1323 81.2532C23.3536 81.2532 20.9106 81.6482 18.7034 82.2788C18.4288 82.3566 18.1524 82.4313 17.8863 82.5179C17.5778 82.6178 17.2624 82.7076 16.9658 82.8179C6.06688 86.8594 2.45074 97.6143 1.56909 101H40.8512H41.7378H50.6416H51.5521H99.1107C98.8242 100.042 98.1103 98.8316 97.095 97.6092C96.6218 97.038 96.0795 96.4648 95.481 95.914Z" fill="#28B5B5"/>
<path d="M110.344 31.152C110.344 25.488 111.736 21.28 114.52 18.528C116.312 16.736 118.312 15.552 120.52 14.976C122.728 14.4 125.624 14.112 129.208 14.112C132.536 14.112 135.208 14.352 137.224 14.832C139.272 15.28 140.952 16.256 142.264 17.76C143.352 19.008 144.2 20.528 144.808 22.32C145.448 24.08 145.816 25.808 145.912 27.504H143.176C143.048 26.064 142.696 24.592 142.12 23.088C141.576 21.552 140.712 20.24 139.528 19.152C138.344 18.032 136.84 17.472 135.016 17.472C133.32 17.472 131.912 18.224 130.792 19.728C129.832 21.04 129.144 22.784 128.728 24.96C128.344 26.88 128.152 28.944 128.152 31.152C128.152 34.768 128.6 37.792 129.496 40.224C130.68 43.328 132.52 44.88 135.016 44.88V31.584H149.704V48C145.096 48 139.88 48.064 134.056 48.192L129.208 48.24C125.688 48.24 122.824 47.904 120.616 47.232C118.44 46.528 116.568 45.392 115 43.824C111.896 40.72 110.344 36.496 110.344 31.152ZM152.391 14.4H184.503C186.071 14.4 187.511 14.8 188.823 15.6C190.167 16.368 191.223 17.424 191.991 18.768C192.791 20.08 193.191 21.52 193.191 23.088C193.191 25.168 192.551 27.056 191.271 28.752C189.991 30.448 188.375 31.536 186.423 32.016C188.151 32.496 189.559 33.408 190.647 34.752C191.767 36.096 192.327 37.616 192.327 39.312V48H176.247V37.584C176.247 36.56 176.055 35.76 175.671 35.184C175.223 34.512 174.711 34.016 174.135 33.696C173.495 33.344 172.775 33.088 171.975 32.928C171.143 32.768 170.359 32.672 169.623 32.64L168.327 32.592V48H152.391V14.4ZM170.007 29.808C171.159 29.808 172.215 29.536 173.175 28.992C174.167 28.416 174.935 27.648 175.479 26.688C176.055 25.696 176.343 24.64 176.343 23.52C176.343 22.368 176.055 21.312 175.479 20.352C174.935 19.36 174.167 18.576 173.175 18C172.215 17.424 171.159 17.136 170.007 17.136H168.327V29.856L170.007 29.808ZM195.61 14.4H230.506V17.232H212.506V29.664H221.338V32.544H212.506V45.12H230.506V48H195.61V14.4ZM233.25 14.4H268.146V17.232H250.146V29.664H258.978V32.544H250.146V45.12H268.146V48H233.25V14.4ZM270.891 14.4H285.003L299.019 31.2V14.4H301.899V48H290.619L273.819 25.632V48H270.891V14.4ZM110.728 58.4H142.744C144.376 58.4 145.864 58.8 147.208 59.6C148.584 60.368 149.672 61.44 150.472 62.816C151.272 64.16 151.672 65.648 151.672 67.28C151.672 68.848 151.288 70.336 150.52 71.744C149.752 73.152 148.728 74.288 147.448 75.152C148.728 76.048 149.752 77.216 150.52 78.656C151.288 80.064 151.672 81.552 151.672 83.12C151.672 84.72 151.272 86.208 150.472 87.584C149.672 88.928 148.584 90 147.208 90.8C145.864 91.6 144.376 92 142.744 92H110.728V58.4ZM128.296 73.808C129.448 73.808 130.504 73.536 131.464 72.992C132.456 72.416 133.224 71.648 133.768 70.688C134.344 69.696 134.632 68.64 134.632 67.52C134.632 66.368 134.344 65.312 133.768 64.352C133.224 63.36 132.456 62.576 131.464 62C130.504 61.424 129.448 61.136 128.296 61.136H127.576V73.76C127.736 73.792 127.976 73.808 128.296 73.808ZM128.296 89.216C129.448 89.216 130.504 88.944 131.464 88.4C132.456 87.824 133.224 87.056 133.768 86.096C134.344 85.104 134.632 84.032 134.632 82.88C134.632 81.76 134.344 80.72 133.768 79.76C133.224 78.768 132.456 78 131.464 77.456C130.504 76.88 129.448 76.592 128.296 76.592H127.576V89.168C127.736 89.2 127.976 89.216 128.296 89.216ZM154.547 58.4H186.659C188.227 58.4 189.667 58.8 190.979 59.6C192.323 60.368 193.379 61.424 194.147 62.768C194.947 64.08 195.347 65.52 195.347 67.088C195.347 69.168 194.707 71.056 193.427 72.752C192.147 74.448 190.531 75.536 188.579 76.016C190.307 76.496 191.715 77.408 192.803 78.752C193.923 80.096 194.483 81.616 194.483 83.312V92H178.403V81.584C178.403 80.56 178.211 79.76 177.827 79.184C177.379 78.512 176.867 78.016 176.291 77.696C175.651 77.344 174.931 77.088 174.131 76.928C173.299 76.768 172.515 76.672 171.779 76.64L170.483 76.592V92H154.547V58.4ZM172.163 73.808C173.315 73.808 174.371 73.536 175.331 72.992C176.323 72.416 177.091 71.648 177.635 70.688C178.211 69.696 178.499 68.64 178.499 67.52C178.499 66.368 178.211 65.312 177.635 64.352C177.091 63.36 176.323 62.576 175.331 62C174.371 61.424 173.315 61.136 172.163 61.136H170.483V73.856L172.163 73.808ZM197.766 58.4H213.414V92H197.766V58.4ZM241.485 70.448C245.293 71.472 248.141 72.832 250.029 74.528C251.917 76.192 252.861 78.368 252.861 81.056C252.861 83.2 252.189 85.12 250.845 86.816C249.501 88.512 247.517 89.84 244.893 90.8C242.301 91.76 239.149 92.24 235.437 92.24C231.053 92.24 227.181 91.68 223.821 90.56C220.493 89.408 217.885 88.016 215.997 86.384L217.581 84.224C219.245 85.536 221.341 86.656 223.869 87.584C226.397 88.512 229.117 88.976 232.029 88.976C233.917 88.976 235.341 88.704 236.301 88.16C237.293 87.616 237.789 86.848 237.789 85.856C237.789 84.128 236.077 82.784 232.653 81.824L226.413 80C223.021 78.976 220.397 77.552 218.541 75.728C216.717 73.904 215.805 71.744 215.805 69.248C215.805 67.168 216.461 65.28 217.773 63.584C219.085 61.888 220.989 60.56 223.485 59.6C226.013 58.608 229.037 58.112 232.557 58.112C235.917 58.112 239.005 58.496 241.821 59.264C244.669 60.032 246.989 60.96 248.781 62.048L247.197 64.256C245.693 63.392 243.885 62.656 241.773 62.048C239.693 61.44 237.501 61.136 235.197 61.136C233.181 61.136 231.629 61.456 230.541 62.096C229.485 62.704 228.957 63.552 228.957 64.64C228.957 65.472 229.357 66.208 230.157 66.848C230.957 67.456 232.477 68.064 234.717 68.672L241.485 70.448ZM263.163 61.232H250.539V58.4H292.635V61.232H279.963V92H263.163V61.232ZM310.652 92.24C306.364 92.24 302.492 91.584 299.036 90.272C295.58 88.96 292.844 87.024 290.828 84.464C288.844 81.872 287.852 78.768 287.852 75.152C287.852 71.568 288.86 68.496 290.876 65.936C292.892 63.376 295.612 61.44 299.036 60.128C302.492 58.784 306.364 58.112 310.652 58.112C314.908 58.112 318.748 58.784 322.172 60.128C325.628 61.44 328.348 63.376 330.332 65.936C332.348 68.496 333.356 71.568 333.356 75.152C333.356 78.768 332.348 81.872 330.332 84.464C328.348 87.024 325.628 88.96 322.172 90.272C318.748 91.584 314.908 92.24 310.652 92.24ZM310.652 89.408C311.996 89.408 312.988 88.8 313.628 87.584C314.172 86.656 314.54 85.008 314.732 82.64C314.828 81.392 314.876 78.896 314.876 75.152C314.876 71.376 314.796 68.704 314.636 67.136C314.54 65.216 314.188 63.76 313.58 62.768C312.94 61.552 311.964 60.944 310.652 60.944C309.308 60.944 308.3 61.552 307.628 62.768C307.084 63.728 306.732 65.184 306.572 67.136C306.444 68.8 306.38 71.472 306.38 75.152C306.38 79.312 306.428 81.808 306.524 82.64C306.652 84.848 307.004 86.496 307.58 87.584C308.252 88.8 309.276 89.408 310.652 89.408ZM335.719 58.4H352.567V89.12H370.807V92H335.719V58.4Z" fill="#28B5B5"/>
</svg>
