<svg width="373" height="101" viewBox="0 0 373 101" fill="none" xmlns="http://www.w3.org/2000/svg">
<path d="M30.3315 61.1211C32.7932 66.0238 37.462 69.6653 43.1957 70.6505L43.9332 70.7776L43.4618 81.0902C43.2042 81.0241 42.9159 80.9833 42.6465 80.9291C42.36 80.8699 42.0818 80.8037 41.7801 80.758C40.9036 80.6257 39.9813 80.5341 38.9761 80.5341C37.6131 80.5341 36.3551 80.717 35.199 81.0326C35.7704 81.2326 36.323 81.4462 36.8518 81.6769C37.2977 81.8719 37.7301 82.077 38.1453 82.2889C38.4318 82.2703 38.7048 82.2295 39.0032 82.2295C39.973 82.2295 40.8663 82.3126 41.7021 82.4481C42.0022 82.4972 42.2853 82.5566 42.5685 82.6193C42.8449 82.6805 43.1211 82.7431 43.3804 82.816C45.8302 83.5076 47.5933 84.6959 48.7835 85.7827C49.1141 86.0844 49.4056 86.3794 49.6497 86.6507C50.1516 87.21 50.4668 87.6662 50.6347 87.9272C50.7111 88.0458 50.7636 88.1356 50.7772 88.1594L50.8095 88.2188C51.0128 88.0832 51.2128 87.9491 51.435 87.8187C51.5096 87.7747 51.5706 87.7256 51.6468 87.683C51.9858 87.4898 52.3725 87.3185 52.7506 87.1421C53.9813 84.7975 58.0061 78.6758 67.0419 76.76L67.0641 76.2989L67.1233 75.029C57.5939 76.9227 52.9809 83.3021 51.3926 86.1061C51.14 85.7908 50.806 85.4246 50.4331 85.0464C50.1518 84.7599 49.833 84.4683 49.4786 84.1683C49.2073 83.9394 48.9379 83.7088 48.6225 83.4817L47.7359 70.867L48.5276 70.7636C56.187 69.7717 62.2038 63.9382 63.6683 56.5976C55.3918 52.9967 49.4786 44.9948 48.8531 35.5639C47.9936 35.435 47.1205 35.3486 46.2271 35.3486C45.1473 35.3486 44.0961 35.4605 43.0688 35.6452C44.1589 40.9905 44.7539 45.6849 44.7539 48.6668C44.7519 58.9697 38.6997 60.8346 30.3315 61.1211Z" fill="white"/>
<path d="M78.1138 74.9482L78.2068 76.252L78.2391 76.7115C91.0116 79.2393 95.6686 90.3249 97.0605 94.9312C97.3757 95.2312 97.676 95.5347 97.9608 95.8433C98.4981 96.4264 98.9846 97.0198 99.4017 97.6081H99.4305L99.2354 96.6029C99.1966 96.4008 95.4991 78.1288 78.1138 74.9482Z" fill="white"/>
<path d="M50.5196 35.0163C50.5332 35.3129 50.54 35.6113 50.5655 35.9047C51.2911 44.3355 56.572 51.4661 63.933 54.8449C64.2009 54.9686 64.4652 55.0975 64.74 55.211C65.0043 55.3211 65.2807 55.4076 65.5502 55.5076C66.3453 55.801 67.1609 56.0519 67.9932 56.2586L68.5153 44.973L57.3551 28.0436L69.1865 34.5401L70.6105 17.9296H75.0691L75.849 41.5928L88.7504 37.7597L76.5661 53.2328L76.812 56.6827C87.9434 55.0672 96.5284 45.4885 96.5284 33.9163C96.5284 21.215 86.1955 10.8838 73.4959 10.8838C60.7962 10.8838 50.4634 21.2166 50.4634 33.9163C50.4634 33.9891 50.4737 34.0604 50.4737 34.1315C50.4772 34.4299 50.5059 34.7215 50.5196 35.0163Z" fill="white"/>
<path d="M7.13975 57.8592C10.0217 59.3408 14.2142 59.4748 18.6289 59.4766L18.9528 54.9297L6.76851 39.4568L19.6699 43.2899L20.4496 19.625H24.9082L26.3324 36.234L38.164 29.7375L27.0038 46.6669L27.1257 49.2879L27.5615 59.1259L27.5971 60.3125C27.6649 60.3125 27.7328 60.3125 27.8005 60.3125C28.0955 60.3125 28.3921 59.8904 28.6804 59.887C28.9888 59.8836 29.289 59.6649 29.589 59.6581C37.8045 59.4752 43.0564 57.9358 43.0564 48.7693C43.0564 45.5719 42.4817 41.0302 41.4729 36.0629C41.4171 35.7866 41.361 35.4832 41.3018 35.2035C41.2442 34.9304 41.1832 34.6407 41.1221 34.3659C37.769 18.9925 30.4979 0 22.9267 0C12.5851 0 2.79639 35.415 2.79639 48.669C2.79816 53.4176 4.17657 56.3352 7.13975 57.8592Z" fill="white"/>
<path d="M69.634 57.4578L69.595 58.3072L68.8337 74.7449L68.7745 76.0368L68.7541 76.4724L68.2083 88.2667C70.8683 90.1399 72.5279 92.5372 73.2925 93.8273C74.1063 93.2729 75.5591 92.454 77.6139 91.7438L76.5222 76.4231L76.4899 75.9757L76.3982 74.6889L75.2489 58.5565L75.1879 57.712L75.1267 56.8678L74.8301 52.7006L84.1188 40.9046L74.2282 43.8427L73.4281 19.625H72.1651L70.6511 37.2782L62.5322 32.823L70.2325 44.502L69.6714 56.6065L69.634 57.4578Z" fill="white"/>
<path d="M24.8656 38.9735L23.3534 21.3203H22.0904L21.2919 45.5396L11.4014 42.6016L20.69 54.3976L20.6662 54.7248L20.3271 59.4733L20.2661 60.3209L20.2051 61.1685L18.8302 80.4647C21.0171 79.8899 23.4397 79.5577 26.1286 79.5577C26.3694 79.5577 26.5914 79.5797 26.8287 79.5846L25.976 61.1703L25.937 60.3227L25.898 59.4751L25.2826 46.1973L32.9828 34.5183L24.8656 38.9735Z" fill="white"/>
<path d="M95.4807 95.9137C93.1632 93.7794 90.0167 91.984 86.7091 91.984C83.7627 91.984 81.3383 92.3994 79.3972 92.9504C79.0905 93.0367 78.7903 93.1266 78.507 93.2198C78.2409 93.3081 77.9782 93.3962 77.7341 93.4879C77.0882 93.7285 76.5219 93.9779 76.0287 94.2185C74.4096 95.0085 73.6009 95.7104 73.5839 95.7274L73.3754 95.9139L72.7415 96.48L72.4702 95.9139L72.2532 95.4597C72.2429 95.4393 72.0006 94.9461 71.5258 94.2187C70.8613 93.198 69.7254 91.7129 68.1114 90.377C67.8606 90.1703 67.6028 89.9652 67.3282 89.7684C67.0518 89.5684 66.7688 89.3718 66.4685 89.1869C64.7038 88.1019 62.5219 87.3153 59.9094 87.3153C56.2356 87.3153 53.535 88.4308 51.6533 89.6938C51.6483 89.6973 51.6416 89.7005 51.6363 89.7041C51.3363 89.9058 51.0617 90.1109 50.8039 90.316C50.4903 90.5651 50.2123 90.8128 49.9563 91.0534C49.6765 91.3179 49.4223 91.5755 49.2087 91.8147C48.4848 92.625 48.1441 93.2269 48.1339 93.2454L47.2727 94.817L46.6031 93.1521C46.5166 92.9385 45.5367 90.599 43.143 88.0493C42.9004 87.7917 42.6327 87.5305 42.3597 87.2695C42.0952 87.0169 41.8087 86.7676 41.5155 86.515C39.8947 85.1267 37.8249 83.8025 35.2191 82.8226C34.8512 82.6854 34.4816 82.548 34.0933 82.426C33.6272 82.2785 33.1305 82.1548 32.6319 82.0326C31.3875 81.7259 30.0602 81.4885 28.6107 81.3664C28.326 81.3426 28.0191 81.3409 27.7257 81.3258C27.456 81.3106 27.1865 81.2953 26.9101 81.2884C26.6456 81.2817 26.4033 81.2529 26.132 81.2529C23.3534 81.2529 20.9104 81.6479 18.7032 82.2785C18.4285 82.3564 18.1521 82.431 17.886 82.5177C17.5776 82.6175 17.2622 82.7074 16.9656 82.8177C6.06663 86.8591 2.4505 97.6141 1.56885 101H40.851H41.7376H50.6413H51.5519H99.1105C98.824 100.042 98.1101 98.8313 97.0947 97.609C96.6216 97.0377 96.0792 96.4646 95.4807 95.9137Z" fill="white"/>
<path d="M110.344 31.152C110.344 25.488 111.736 21.28 114.52 18.528C116.312 16.736 118.312 15.552 120.52 14.976C122.728 14.4 125.624 14.112 129.208 14.112C132.536 14.112 135.208 14.352 137.224 14.832C139.272 15.28 140.952 16.256 142.264 17.76C143.352 19.008 144.2 20.528 144.808 22.32C145.448 24.08 145.816 25.808 145.912 27.504H143.176C143.048 26.064 142.696 24.592 142.12 23.088C141.576 21.552 140.712 20.24 139.528 19.152C138.344 18.032 136.84 17.472 135.016 17.472C133.32 17.472 131.912 18.224 130.792 19.728C129.832 21.04 129.144 22.784 128.728 24.96C128.344 26.88 128.152 28.944 128.152 31.152C128.152 34.768 128.6 37.792 129.496 40.224C130.68 43.328 132.52 44.88 135.016 44.88V31.584H149.704V48C145.096 48 139.88 48.064 134.056 48.192L129.208 48.24C125.688 48.24 122.824 47.904 120.616 47.232C118.44 46.528 116.568 45.392 115 43.824C111.896 40.72 110.344 36.496 110.344 31.152ZM152.391 14.4H184.503C186.071 14.4 187.511 14.8 188.823 15.6C190.167 16.368 191.223 17.424 191.991 18.768C192.791 20.08 193.191 21.52 193.191 23.088C193.191 25.168 192.551 27.056 191.271 28.752C189.991 30.448 188.375 31.536 186.423 32.016C188.151 32.496 189.559 33.408 190.647 34.752C191.767 36.096 192.327 37.616 192.327 39.312V48H176.247V37.584C176.247 36.56 176.055 35.76 175.671 35.184C175.223 34.512 174.711 34.016 174.135 33.696C173.495 33.344 172.775 33.088 171.975 32.928C171.143 32.768 170.359 32.672 169.623 32.64L168.327 32.592V48H152.391V14.4ZM170.007 29.808C171.159 29.808 172.215 29.536 173.175 28.992C174.167 28.416 174.935 27.648 175.479 26.688C176.055 25.696 176.343 24.64 176.343 23.52C176.343 22.368 176.055 21.312 175.479 20.352C174.935 19.36 174.167 18.576 173.175 18C172.215 17.424 171.159 17.136 170.007 17.136H168.327V29.856L170.007 29.808ZM195.61 14.4H230.506V17.232H212.506V29.664H221.338V32.544H212.506V45.12H230.506V48H195.61V14.4ZM233.25 14.4H268.146V17.232H250.146V29.664H258.978V32.544H250.146V45.12H268.146V48H233.25V14.4ZM270.891 14.4H285.003L299.019 31.2V14.4H301.899V48H290.619L273.819 25.632V48H270.891V14.4ZM110.728 58.4H142.744C144.376 58.4 145.864 58.8 147.208 59.6C148.584 60.368 149.672 61.44 150.472 62.816C151.272 64.16 151.672 65.648 151.672 67.28C151.672 68.848 151.288 70.336 150.52 71.744C149.752 73.152 148.728 74.288 147.448 75.152C148.728 76.048 149.752 77.216 150.52 78.656C151.288 80.064 151.672 81.552 151.672 83.12C151.672 84.72 151.272 86.208 150.472 87.584C149.672 88.928 148.584 90 147.208 90.8C145.864 91.6 144.376 92 142.744 92H110.728V58.4ZM128.296 73.808C129.448 73.808 130.504 73.536 131.464 72.992C132.456 72.416 133.224 71.648 133.768 70.688C134.344 69.696 134.632 68.64 134.632 67.52C134.632 66.368 134.344 65.312 133.768 64.352C133.224 63.36 132.456 62.576 131.464 62C130.504 61.424 129.448 61.136 128.296 61.136H127.576V73.76C127.736 73.792 127.976 73.808 128.296 73.808ZM128.296 89.216C129.448 89.216 130.504 88.944 131.464 88.4C132.456 87.824 133.224 87.056 133.768 86.096C134.344 85.104 134.632 84.032 134.632 82.88C134.632 81.76 134.344 80.72 133.768 79.76C133.224 78.768 132.456 78 131.464 77.456C130.504 76.88 129.448 76.592 128.296 76.592H127.576V89.168C127.736 89.2 127.976 89.216 128.296 89.216ZM154.547 58.4H186.659C188.227 58.4 189.667 58.8 190.979 59.6C192.323 60.368 193.379 61.424 194.147 62.768C194.947 64.08 195.347 65.52 195.347 67.088C195.347 69.168 194.707 71.056 193.427 72.752C192.147 74.448 190.531 75.536 188.579 76.016C190.307 76.496 191.715 77.408 192.803 78.752C193.923 80.096 194.483 81.616 194.483 83.312V92H178.403V81.584C178.403 80.56 178.211 79.76 177.827 79.184C177.379 78.512 176.867 78.016 176.291 77.696C175.651 77.344 174.931 77.088 174.131 76.928C173.299 76.768 172.515 76.672 171.779 76.64L170.483 76.592V92H154.547V58.4ZM172.163 73.808C173.315 73.808 174.371 73.536 175.331 72.992C176.323 72.416 177.091 71.648 177.635 70.688C178.211 69.696 178.499 68.64 178.499 67.52C178.499 66.368 178.211 65.312 177.635 64.352C177.091 63.36 176.323 62.576 175.331 62C174.371 61.424 173.315 61.136 172.163 61.136H170.483V73.856L172.163 73.808ZM197.766 58.4H213.414V92H197.766V58.4ZM241.485 70.448C245.293 71.472 248.141 72.832 250.029 74.528C251.917 76.192 252.861 78.368 252.861 81.056C252.861 83.2 252.189 85.12 250.845 86.816C249.501 88.512 247.517 89.84 244.893 90.8C242.301 91.76 239.149 92.24 235.437 92.24C231.053 92.24 227.181 91.68 223.821 90.56C220.493 89.408 217.885 88.016 215.997 86.384L217.581 84.224C219.245 85.536 221.341 86.656 223.869 87.584C226.397 88.512 229.117 88.976 232.029 88.976C233.917 88.976 235.341 88.704 236.301 88.16C237.293 87.616 237.789 86.848 237.789 85.856C237.789 84.128 236.077 82.784 232.653 81.824L226.413 80C223.021 78.976 220.397 77.552 218.541 75.728C216.717 73.904 215.805 71.744 215.805 69.248C215.805 67.168 216.461 65.28 217.773 63.584C219.085 61.888 220.989 60.56 223.485 59.6C226.013 58.608 229.037 58.112 232.557 58.112C235.917 58.112 239.005 58.496 241.821 59.264C244.669 60.032 246.989 60.96 248.781 62.048L247.197 64.256C245.693 63.392 243.885 62.656 241.773 62.048C239.693 61.44 237.501 61.136 235.197 61.136C233.181 61.136 231.629 61.456 230.541 62.096C229.485 62.704 228.957 63.552 228.957 64.64C228.957 65.472 229.357 66.208 230.157 66.848C230.957 67.456 232.477 68.064 234.717 68.672L241.485 70.448ZM263.163 61.232H250.539V58.4H292.635V61.232H279.963V92H263.163V61.232ZM310.652 92.24C306.364 92.24 302.492 91.584 299.036 90.272C295.58 88.96 292.844 87.024 290.828 84.464C288.844 81.872 287.852 78.768 287.852 75.152C287.852 71.568 288.86 68.496 290.876 65.936C292.892 63.376 295.612 61.44 299.036 60.128C302.492 58.784 306.364 58.112 310.652 58.112C314.908 58.112 318.748 58.784 322.172 60.128C325.628 61.44 328.348 63.376 330.332 65.936C332.348 68.496 333.356 71.568 333.356 75.152C333.356 78.768 332.348 81.872 330.332 84.464C328.348 87.024 325.628 88.96 322.172 90.272C318.748 91.584 314.908 92.24 310.652 92.24ZM310.652 89.408C311.996 89.408 312.988 88.8 313.628 87.584C314.172 86.656 314.54 85.008 314.732 82.64C314.828 81.392 314.876 78.896 314.876 75.152C314.876 71.376 314.796 68.704 314.636 67.136C314.54 65.216 314.188 63.76 313.58 62.768C312.94 61.552 311.964 60.944 310.652 60.944C309.308 60.944 308.3 61.552 307.628 62.768C307.084 63.728 306.732 65.184 306.572 67.136C306.444 68.8 306.38 71.472 306.38 75.152C306.38 79.312 306.428 81.808 306.524 82.64C306.652 84.848 307.004 86.496 307.58 87.584C308.252 88.8 309.276 89.408 310.652 89.408ZM335.719 58.4H352.567V89.12H370.807V92H335.719V58.4Z" fill="white"/>
</svg>
